<?xml version="1.0" encoding="UTF-8" standalone="no"?>
<svg
   version="1.0"
   viewBox="0 0 300 300"
   preserveAspectRatio="xMidYMid meet"
   id="svg8"
   sodipodi:docname="Makerworld.svg"
   inkscape:version="1.1 (c68e22c387, 2021-05-23)"
   xmlns:inkscape="http://www.inkscape.org/namespaces/inkscape"
   xmlns:sodipodi="http://sodipodi.sourceforge.net/DTD/sodipodi-0.dtd"
   xmlns="http://www.w3.org/2000/svg"
   xmlns:svg="http://www.w3.org/2000/svg">
  <defs
     id="defs12" />
  <sodipodi:namedview
     id="namedview10"
     pagecolor="#ffffff"
     bordercolor="#666666"
     borderopacity="1.0"
     inkscape:pageshadow="2"
     inkscape:pageopacity="0.0"
     inkscape:pagecheckerboard="0"
     inkscape:document-units="pt"
     showgrid="false"
     units="px"
     inkscape:zoom="1.04"
     inkscape:cx="-91.346154"
     inkscape:cy="213.46154"
     inkscape:window-width="1920"
     inkscape:window-height="1018"
     inkscape:window-x="-6"
     inkscape:window-y="-6"
     inkscape:window-maximized="1"
     inkscape:current-layer="g6" />
  <metadata
     id="metadata2">
Created by potrace 1.10, written by Peter Selinger 2001-2011
</metadata>
  <g
     transform="matrix(0.1,0,0,-0.1,0,300)"
     fill="#000000"
     stroke="none"
     id="g6">
    <path
       d="M 406.5,2841 0,2682 V 1504.5 327 L 406.5,168 813,9 1156.5,144 1500,279 1843.5,144 2187,9 2593.5,168 3000,327 V 1504.5 2682 l -406.5,159 -406.5,159 -343.5,-135 -343.5,-135 -343.5,135 -342,135 z m 771,-111 315,-124.5 4.5,-489 3,-489 -340.5,133.5 c -186,73.5 -342,133.5 -345,133.5 -3,0 -4.5,220.5 -4.5,489 0,457.5 1.5,487.5 27,480 13.5,-4.5 168,-64.5 340.5,-133.5 z m 1357.5,7.5 337.5,-132 4.5,-483 c 3,-372 -1.5,-483 -15,-483 -10.5,0 -165,58.5 -345,129 l -327,129 v 486 c 0,267 1.5,486 4.5,486 1.5,0 154.5,-60 340.5,-132 z M 1144.5,1641 c 180,-69 325.5,-130.5 325.5,-136.5 0,-4.5 -148.5,-67.5 -330,-138 L 810,1237.5 480,1368 c -181.5,70.5 -330,132 -330,136.5 0,9 648,268.5 661.5,264 4.5,0 154.5,-58.5 333,-127.5 z m 1440,-25.5 c 145.5,-57 265.5,-106.5 265.5,-111 0,-4.5 -148.5,-66 -330,-136.5 L 2188.5,1239 1860,1366.5 c -181.5,70.5 -330,133.5 -330,138 0,6 147,67.5 327,138 l 325.5,127.5 67.5,-25.5 c 37.5,-13.5 187.5,-70.5 334.5,-129 z M 537,1219.5 810,1113 V 625.5 c 0,-267 -1.5,-486 -3,-486 -3,0 -156,60 -342,132 l -337.5,132 -4.5,490.5 -3,490.5 70.5,-28.5 c 40.5,-15 195,-76.5 346.5,-136.5 z m 1462.5,-33 L 2190,1113 V 625.5 c 0,-267 -4.5,-486 -10.5,-484.5 -7.5,0 -160.5,60 -342,130.5 l -330,130.5 -4.5,490.5 -3,490.5 153,-61.5 c 85.5,-33 240,-93 346.5,-135 z"
       id="path4"
       style="stroke-width:1.5" />
  </g>
</svg>
