<?xml version="1.0" encoding="UTF-8"?>
<svg xmlns="http://www.w3.org/2000/svg" xmlns:xlink="http://www.w3.org/1999/xlink" width="16px" height="16px" viewBox="0 0 16 16" version="1.1">
<g id="surface1">
<path style=" stroke:none;fill-rule:evenodd;fill:rgb(0%,0%,0%);fill-opacity:1;" d="M 11.839844 0.691406 C 12.738281 -0.226562 14.207031 -0.230469 15.113281 0.679688 C 16.019531 1.589844 16.023438 3.074219 15.121094 3.988281 L 11.164062 8 L 15.125 12.019531 C 16.019531 12.929688 16.007812 14.398438 15.097656 15.308594 C 14.191406 16.214844 12.726562 16.210938 11.835938 15.304688 L 7.898438 11.3125 L 3.957031 15.308594 C 3.054688 16.226562 1.589844 16.230469 0.683594 15.320312 C -0.222656 14.410156 -0.226562 12.925781 0.671875 12.011719 L 4.632812 8 L 0.667969 3.980469 C -0.226562 3.070312 -0.210938 1.601562 0.695312 0.691406 C 1.605469 -0.214844 3.066406 -0.210938 3.960938 0.695312 L 7.894531 4.6875 Z M 11.839844 0.691406 "/>
</g>
</svg>
