<?xml version="1.0" encoding="UTF-8" standalone="no"?>
<svg
   viewBox="0 0 1316.3344 588.33441"
   version="1.1"
   id="svg4"
   sodipodi:docname="gears-solid.svg"
   width="1316.3344"
   height="588.33441"
   inkscape:version="1.1 (c68e22c387, 2021-05-23)"
   xmlns:inkscape="http://www.inkscape.org/namespaces/inkscape"
   xmlns:sodipodi="http://sodipodi.sourceforge.net/DTD/sodipodi-0.dtd"
   xmlns="http://www.w3.org/2000/svg"
   xmlns:svg="http://www.w3.org/2000/svg">
  <defs
     id="defs8" />
  <sodipodi:namedview
     id="namedview6"
     pagecolor="#ffffff"
     bordercolor="#666666"
     borderopacity="1.0"
     inkscape:pageshadow="2"
     inkscape:pageopacity="0.0"
     inkscape:pagecheckerboard="0"
     showgrid="false"
     width="1200px"
     fit-margin-top="44"
     fit-margin-bottom="44"
     fit-margin-left="344"
     fit-margin-right="344"
     inkscape:zoom="0.57452426"
     inkscape:cx="798.05159"
     inkscape:cy="234.97702"
     inkscape:window-width="1920"
     inkscape:window-height="1018"
     inkscape:window-x="-1926"
     inkscape:window-y="-6"
     inkscape:window-maximized="1"
     inkscape:current-layer="svg4" />
  <!--! Font Awesome Pro 6.4.2 by @fontawesome - https://fontawesome.com License - https://fontawesome.com/license (Commercial License) Copyright 2023 Fonticons, Inc. -->
  <path
     d="m 648.8344,171.3 c 7.1,-6.3 9.9,-16.2 6.2,-25 -2.3,-5.3 -4.8,-10.5 -7.6,-15.5 l -3.1,-5.4 c -3,-5 -6.3,-9.9 -9.8,-14.6 -5.7,-7.6 -15.7,-10.1 -24.7,-7.1 l -28.2,9.3 c -10.7,-8.8 -23,-16 -36.2,-20.9 l -6.1,-29 c -1.9,-9.3 -9.1,-16.7 -18.5,-17.8 -6.6,-0.9 -13.3,-1.3 -20.1,-1.3 h -0.7 c -6.8,0 -13.5,0.4 -20.1,1.2 -9.4,1.1 -16.6,8.6 -18.5,17.8 l -6.1,29.1 c -13.3,5 -25.5,12.1 -36.2,20.9 l -28.3,-9.2 c -9,-3 -19,-0.5 -24.7,7.1 -3.5,4.7 -6.8,9.6 -9.9,14.6 l -3,5.3 c -2.8,5 -5.3,10.2 -7.6,15.6 -3.7,8.7 -0.9,18.6 6.2,25 l 22.2,19.8 c -1.1,6.7 -1.7,13.7 -1.7,20.8 0,7.1 0.6,14.1 1.7,20.9 l -22.2,19.8 c -7.1,6.3 -9.9,16.2 -6.2,25 2.3,5.3 4.8,10.5 7.6,15.6 l 3,5.2 c 3,5.1 6.3,9.9 9.9,14.6 5.7,7.6 15.7,10.1 24.7,7.1 l 28.2,-9.3 c 10.7,8.8 23,16 36.2,20.9 l 6.1,29.1 c 1.9,9.3 9.1,16.7 18.5,17.8 6.7,0.8 13.5,1.2 20.4,1.2 6.9,0 13.7,-0.4 20.4,-1.2 9.4,-1.1 16.6,-8.6 18.5,-17.8 l 6.1,-29.1 c 13.3,-5 25.5,-12.1 36.2,-20.9 l 28.2,9.3 c 9,3 19,0.5 24.7,-7.1 3.5,-4.7 6.8,-9.5 9.8,-14.6 l 3.1,-5.4 c 2.8,-5 5.3,-10.2 7.6,-15.5 3.7,-8.7 0.9,-18.6 -6.2,-25 l -22.2,-19.8 c 1.1,-6.8 1.7,-13.8 1.7,-20.9 0,-7.1 -0.6,-14.1 -1.7,-20.9 l 22.2,-19.8 z m -196.5,40.7 a 48,48 0 1 1 96,0 48,48 0 1 1 -96,0 z m 392.7,324.5 c 6.3,7.1 16.2,9.9 25,6.2 5.3,-2.3 10.5,-4.8 15.5,-7.6 l 5.4,-3.1 c 5,-3 9.9,-6.3 14.6,-9.8 7.6,-5.7 10.1,-15.7 7.1,-24.7 l -9.3,-28.2 c 8.8,-10.7 16,-23 20.9,-36.2 l 29.1,-6.1 c 9.3,-1.9 16.7,-9.1 17.8,-18.5 0.8,-6.7 1.2,-13.5 1.2,-20.4 0,-6.9 -0.4,-13.7 -1.2,-20.4 -1.1,-9.4 -8.6,-16.6 -17.8,-18.5 l -29.1,-6.2 c -5,-13.3 -12.1,-25.5 -20.9,-36.2 l 9.3,-28.2 c 3,-9 0.5,-19 -7.1,-24.7 -4.7,-3.5 -9.6,-6.8 -14.6,-9.9 l -5.3,-3 c -5,-2.8 -10.2,-5.3 -15.6,-7.6 -8.7,-3.7 -18.6,-0.9 -25,6.2 l -19.8,22.2 c -6.8,-1.1 -13.8,-1.7 -20.9,-1.7 -7.1,0 -14.1,0.6 -20.9,1.7 l -19.8,-22.2 c -6.3,-7.1 -16.2,-9.9 -25,-6.2 -5.3,2.3 -10.5,4.8 -15.6,7.6 l -5.2,3 c -5.1,3 -9.9,6.3 -14.6,9.9 -7.6,5.7 -10.1,15.7 -7.1,24.7 l 9.3,28.2 c -8.8,10.7 -16,23 -20.9,36.2 l -29.1,6 c -9.3,1.9 -16.7,9.1 -17.8,18.5 -0.8,6.7 -1.2,13.5 -1.2,20.4 0,6.9 0.4,13.7 1.2,20.4 1.1,9.4 8.6,16.6 17.8,18.5 l 29.1,6.1 c 5,13.3 12.1,25.5 20.9,36.2 l -9.3,28.2 c -3,9 -0.5,19 7.1,24.7 4.7,3.5 9.5,6.8 14.6,9.8 l 5.4,3.1 c 5,2.8 10.2,5.3 15.5,7.6 8.7,3.7 18.6,0.9 25,-6.2 l 19.8,-22.2 c 6.8,1.1 13.8,1.7 20.9,1.7 7.1,0 14.1,-0.6 20.9,-1.7 l 19.8,22.2 z m -40.7,-196.5 a 48,48 0 1 1 0,96 48,48 0 1 1 0,-96 z"
     id="path2" />
</svg>
